<svg width="37" height="40" viewBox="0 0 37 40" fill="none" xmlns="http://www.w3.org/2000/svg">
<path d="M13.8034 12.846C16.0548 12.846 18.2139 13.641 19.8058 15.056C21.3977 16.471 22.292 18.3903 22.292 20.3914C22.292 23.4868 22.9917 25.8046 23.8991 27.5091C25.0582 29.6869 25.6378 30.7758 25.6056 31.0245C25.568 31.3148 25.5201 31.3947 25.2814 31.5642C25.0769 31.7096 24.0597 31.7096 22.0251 31.7096H5.58167C3.54711 31.7096 2.52985 31.7096 2.32535 31.5642C2.08681 31.3947 2.03888 31.3148 2.00127 31.0245C1.96903 30.7758 2.54863 29.6869 3.70785 27.5091C4.61514 25.8046 5.3148 23.4868 5.3148 20.3914C5.3148 18.3903 6.20914 16.471 7.80105 15.056C9.39298 13.641 11.5521 12.846 13.8034 12.846ZM13.8034 12.846V9.70207M9.64399 36.4255C10.7541 37.4053 12.2124 37.9999 13.8097 37.9999C15.4068 37.9999 16.8651 37.4053 17.9754 36.4255" stroke="black" stroke-width="3" stroke-linecap="round" stroke-linejoin="round"/>
<path d="M23.385 6.426L25.891 4.186H26.955C27.263 4.186 27.417 4.34 27.417 4.634V12.74C27.417 13.51 27.207 13.832 26.297 13.832H25.695V6.496L24.253 7.798L23.371 6.818C23.245 6.664 23.287 6.538 23.385 6.426Z" fill="white"/>
<ellipse cx="26.1064" cy="10.1064" rx="10.1064" ry="10.1064" fill="#FFD09B"/>
<path d="M21.5114 10.4062L22.267 9.63068L24.892 12.2159L30.321 6.80682L31.0966 7.58239L24.892 13.767L21.5114 10.4062Z" fill="white"/>
</svg>
