<svg width="28" height="32" viewBox="0 0 28 32" fill="none" xmlns="http://www.w3.org/2000/svg">
<path d="M13.8034 4.84608C16.0548 4.84608 18.2139 5.64103 19.8058 7.05609C21.3977 8.47112 22.292 10.3903 22.292 12.3915C22.292 15.4869 22.9917 17.8047 23.8991 19.5092C25.0582 21.687 25.6378 22.7759 25.6056 23.0246C25.568 23.3149 25.5201 23.3948 25.2814 23.5642C25.0769 23.7096 24.0597 23.7096 22.0251 23.7096H5.58167C3.54711 23.7096 2.52985 23.7096 2.32535 23.5642C2.08681 23.3948 2.03888 23.3149 2.00127 23.0246C1.96903 22.7759 2.54863 21.687 3.70785 19.5092C4.61514 17.8047 5.3148 15.4869 5.3148 12.3915C5.3148 10.3903 6.20914 8.47112 7.80105 7.05609C9.39298 5.64103 11.5521 4.84608 13.8034 4.84608ZM13.8034 4.84608V1.70215M9.64399 28.4255C10.7541 29.4053 12.2124 30 13.8097 30C15.4068 30 16.8651 29.4053 17.9754 28.4255" stroke="black" stroke-width="3" stroke-linecap="round" stroke-linejoin="round"/>
</svg>
