<svg width="34" height="28" viewBox="0 0 34 28" fill="none" xmlns="http://www.w3.org/2000/svg">
<path d="M5.39402 27.8385L28.3724 27.7324C29.769 27.7259 31.1058 27.165 32.0888 26.1729C33.0718 25.1807 33.6204 23.8389 33.614 22.4422L33.5609 10.953C33.5544 9.55642 32.9934 8.21959 32.0013 7.23662C31.0092 6.25363 29.6673 5.70503 28.2707 5.71148L27.1217 5.71679L24.8467 2.37622C24.36 1.65946 23.7044 1.07335 22.9379 0.66951C22.1714 0.265656 21.3173 0.0564733 20.4509 0.0603427L13.0595 0.0944955C12.193 0.0986333 11.3409 0.3157 10.5782 0.72662C9.81549 1.13752 9.16543 1.72967 8.68525 2.45089L6.44119 5.81235L5.29227 5.81766C3.89576 5.82411 2.55888 6.38509 1.57595 7.37721C0.59282 8.3693 0.044274 9.71126 0.0507269 11.1078L0.103814 22.597C0.110268 23.9937 0.671191 25.3304 1.66344 26.3135C2.6555 27.2964 3.99751 27.845 5.39402 27.8385ZM28.2839 8.58378C28.9187 8.58084 29.5287 8.83022 29.9797 9.27703C30.4306 9.72384 30.6856 10.3315 30.6886 10.9662L30.7417 22.4554C30.7446 23.0902 30.4952 23.7003 30.0484 24.1512C29.6016 24.6021 28.9939 24.8571 28.3591 24.8601L5.38075 24.9662C4.74597 24.9692 4.13588 24.7198 3.68496 24.273C3.23405 23.8263 2.97904 23.2185 2.97611 22.5837L2.92302 11.0945C2.92009 10.4598 3.16947 9.8498 3.61624 9.39884C4.06301 8.94789 4.67077 8.69289 5.30555 8.68995L7.22041 8.6811C7.45479 8.6796 7.68526 8.62071 7.89175 8.50961C8.09824 8.39851 8.27425 8.23855 8.40471 8.04371L11.0286 3.99114C11.2364 3.67056 11.5185 3.40487 11.8511 3.21665C12.1836 3.02843 12.5567 2.92322 12.9385 2.90997L20.4639 2.87519C20.8458 2.88492 21.2198 2.98667 21.554 3.17181C21.8883 3.35695 22.1729 3.62003 22.3837 3.93867L25.1789 7.96621C25.3111 8.15982 25.4887 8.31815 25.6961 8.42734C25.9036 8.53653 26.1346 8.59329 26.3691 8.59263L28.2839 8.58378Z" fill="black"/>
<path d="M16.8562 22.0408C18.0871 22.0351 19.2885 21.6646 20.3088 20.9761C21.3291 20.2875 22.1222 19.3119 22.588 18.1724C23.0538 17.0332 23.1712 15.7813 22.9255 14.5753C22.6798 13.3691 22.082 12.2629 21.2076 11.3966C20.3333 10.5303 19.2217 9.9427 18.0132 9.70816C16.805 9.47361 15.5542 9.60263 14.4193 10.0789C13.2843 10.5552 12.316 11.3573 11.6369 12.3839C10.9578 13.4106 10.5984 14.6154 10.6041 15.8462C10.6167 17.4951 11.2814 19.0722 12.4527 20.2328C13.6241 21.3934 15.2073 22.0434 16.8562 22.0408ZM16.8119 12.4665C17.4747 12.4634 18.1236 12.6569 18.6762 13.0226C19.229 13.3883 19.6609 13.9096 19.9174 14.5208C20.1738 15.132 20.2434 15.8053 20.1171 16.456C19.9907 17.1067 19.6744 17.7053 19.2078 18.176C18.7414 18.6469 18.1458 18.9689 17.4963 19.1011C16.8468 19.2334 16.1729 19.1701 15.5593 18.9194C14.9458 18.6685 14.4205 18.2414 14.0497 17.692C13.6789 17.1428 13.4795 16.4957 13.4764 15.833C13.4773 14.9458 13.828 14.0947 14.4526 13.4645C15.077 12.8341 15.9248 12.4756 16.8119 12.4665Z" fill="black"/>
</svg>
