<svg width="29" height="28" viewBox="0 0 29 28" fill="none" xmlns="http://www.w3.org/2000/svg">
<path d="M1 5.76547V17.6667C1 18.9305 1.50207 20.1427 2.39577 21.0364C3.28947 21.9301 4.50159 22.4321 5.76547 22.4321H8.1482V26L15.3463 22.4321H22.4945C23.7584 22.4321 24.9705 21.9301 25.8642 21.0364C26.7579 20.1427 27.26 18.9305 27.26 17.6667V5.76547C27.26 4.50159 26.7579 3.28947 25.8642 2.39577C24.9705 1.50207 23.7584 1 22.4945 1H5.76547C4.50159 1 3.28947 1.50207 2.39577 2.39577C1.50207 3.28947 1 4.50159 1 5.76547Z" stroke="#020202" stroke-width="2" stroke-miterlimit="10"/>
</svg>
