<svg width="38" height="40" viewBox="0 0 38 40" fill="none" xmlns="http://www.w3.org/2000/svg">
<g clip-path="url(#clip0_125_709)">
<path d="M10.3638 26.0976C12.1949 21.0612 16.3469 17.0617 21.5292 18.6314C25.1453 19.7268 23.6283 21.7681 25.0336 23.11C25.8264 23.7155 27.9788 22.9029 28.5356 23.6587C29.0279 24.3272 28.6722 25.5466 28.5356 26.3472C27.9969 29.5036 24.3511 29.9682 21.2622 29.9682" stroke="black" stroke-opacity="0.9" stroke-width="2" stroke-linecap="round" stroke-linejoin="round"/>
<path d="M28.7146 24.8162C28.46 24.3368 27.8791 23.8884 27.1792 23.5101" stroke="black" stroke-opacity="0.9" stroke-width="2" stroke-linecap="round" stroke-linejoin="round"/>
<path d="M14.6216 23.8892C14.4379 24.8824 11.6044 31.6477 14.5378 32.2242C19.9856 32.9965 19.3318 26.8461 19.3318 23.0024" stroke="black" stroke-opacity="0.9" stroke-width="2" stroke-linecap="round" stroke-linejoin="round"/>
<path d="M24.3906 39.2947H7.75164C5.54885 39.2947 3.75684 37.5162 3.75684 35.33V17.29C3.75684 15.9526 4.43283 14.721 5.56539 13.9959L15.8499 7.41052C17.7635 6.1851 20.2366 6.1851 22.1501 7.41052L32.4346 13.9959C33.567 14.721 34.2432 15.9524 34.2432 17.29V36.9676C34.2432 37.5937 33.7316 38.1014 33.1009 38.1014C32.4701 38.1014 31.9586 37.5938 31.9586 36.9676V17.29C31.9586 16.7262 31.6735 16.207 31.1959 15.9011L20.9114 9.31578C19.75 8.57218 18.2495 8.57218 17.0883 9.31578L6.80389 15.9012C6.32638 16.207 6.04143 16.7262 6.04143 17.2902V35.33C6.04143 36.266 6.80862 37.0274 7.75164 37.0274H24.3907C25.0215 37.0274 25.533 37.535 25.533 38.1611C25.533 38.7873 25.0215 39.2947 24.3906 39.2947Z" fill="black"/>
<path d="M36.8567 13.2761C36.6367 13.2761 36.4147 13.2134 36.2186 13.0821L20.9722 2.87126C19.7743 2.06886 18.226 2.06886 17.0277 2.87126L1.78136 13.0821C1.25832 13.4325 0.548513 13.2954 0.195507 12.7765C-0.157345 12.2575 -0.0194678 11.5528 0.50343 11.2026L15.7498 0.99171C17.7242 -0.330647 20.2759 -0.330493 22.2502 0.99171L37.4966 11.2025C38.0195 11.5527 38.1574 12.2574 37.8045 12.7765C37.5837 13.101 37.2234 13.2761 36.8567 13.2761Z" fill="black"/>
</g>
<defs>
<clipPath id="clip0_125_709">
<rect width="38" height="40" fill="white"/>
</clipPath>
</defs>
</svg>
