<svg width="29" height="25" viewBox="0 0 29 25" fill="none" xmlns="http://www.w3.org/2000/svg">
<path d="M14.3596 3.96239L13.6377 4.65713C13.8266 4.85335 14.0872 4.96422 14.3596 4.96422C14.6319 4.96422 14.8926 4.85335 15.0814 4.65713L14.3596 3.96239ZM10.9214 21.0887C8.89678 19.4927 6.68297 17.9342 4.92672 15.9565C3.20482 14.0175 2.00366 11.7551 2.00366 8.8199H0C0 12.3804 1.48338 15.0967 3.42856 17.287C5.3394 19.4386 7.77524 21.1599 9.68092 22.6623L10.9214 21.0887ZM2.00366 8.8199C2.00366 5.94682 3.62712 3.53747 5.84316 2.52451C7.99604 1.54043 10.8888 1.80104 13.6377 4.65713L15.0814 3.26765C11.8196 -0.12122 8.03347 -0.679747 5.01017 0.702205C2.05003 2.05529 0 5.19718 0 8.8199H2.00366ZM9.68092 22.6623C10.3651 23.2016 11.0997 23.7768 11.844 24.2118C12.5882 24.6466 13.4374 25 14.3596 25V22.9963C13.946 22.9963 13.4594 22.8351 12.855 22.4818C12.2508 22.1288 11.624 21.6427 10.9214 21.0887L9.68092 22.6623ZM19.0383 22.6623C20.9439 21.1599 23.3798 19.4386 25.2906 17.287C27.2358 15.0967 28.7192 12.3804 28.7192 8.8199H26.7155C26.7155 11.7551 25.5144 14.0175 23.7924 15.9565C22.0361 17.9342 19.8224 19.4927 17.7979 21.0887L19.0383 22.6623ZM28.7192 8.8199C28.7192 5.19718 26.6691 2.05529 23.7089 0.702205C20.6857 -0.679747 16.8996 -0.12122 13.6377 3.26765L15.0814 4.65713C17.8303 1.80104 20.7231 1.54043 22.8759 2.52451C25.092 3.53747 26.7155 5.94682 26.7155 8.8199H28.7192ZM17.7979 21.0887C17.0951 21.6427 16.4684 22.1288 15.8642 22.4818C15.2598 22.8351 14.7731 22.9963 14.3596 22.9963V25C15.2818 25 16.1309 24.6466 16.8751 24.2118C17.6195 23.7768 18.3539 23.2016 19.0383 22.6623L17.7979 21.0887Z" fill="black"/>
</svg>
