<svg width="41" height="35" viewBox="0 0 41 35" fill="none" xmlns="http://www.w3.org/2000/svg">
<path d="M15.9214 20.165C15.9214 20.5841 15.7971 20.9939 15.5642 21.3424C15.3314 21.6909 15.0004 21.9625 14.6131 22.1229C14.2259 22.2833 13.7998 22.3253 13.3887 22.2435C12.9775 22.1618 12.5999 21.9599 12.3035 21.6635C12.0072 21.3671 11.8053 20.9895 11.7235 20.5784C11.6418 20.1673 11.6837 19.7412 11.8441 19.3539C12.0045 18.9667 12.2762 18.6357 12.6247 18.4028C12.9732 18.17 13.3829 18.0457 13.8021 18.0457C14.3642 18.0457 14.9032 18.269 15.3007 18.6664C15.6981 19.0638 15.9214 19.6029 15.9214 20.165ZM26.5179 22.2843C26.937 22.2843 27.3468 22.16 27.6953 21.9271C28.0438 21.6942 28.3154 21.3632 28.4758 20.976C28.6362 20.5887 28.6782 20.1626 28.5964 19.7515C28.5146 19.3404 28.3128 18.9628 28.0164 18.6664C27.72 18.37 27.3424 18.1682 26.9313 18.0864C26.5202 18.0046 26.0941 18.0466 25.7068 18.207C25.3196 18.3674 24.9886 18.639 24.7557 18.9876C24.5229 19.3361 24.3986 19.7458 24.3986 20.165C24.3986 20.727 24.6218 21.2661 25.0193 21.6635C25.4167 22.061 25.9558 22.2843 26.5179 22.2843ZM38.6555 20.8642C38.2828 21.0348 37.8779 21.1237 37.468 21.1249C36.8219 21.1241 36.1967 20.8963 35.7014 20.4814V27.9357C35.6993 29.8086 34.9544 31.6042 33.63 32.9286C32.3057 34.2529 30.5101 34.9979 28.6371 35H11.6828C9.8099 34.9979 8.0143 34.2529 6.68995 32.9286C5.36559 31.6042 4.62064 29.8086 4.61851 27.9357V20.4814C4.1233 20.8963 3.49802 21.1241 2.85192 21.1249C2.44202 21.1238 2.03713 21.0348 1.66447 20.8641C1.08373 20.6089 0.607527 20.1631 0.314636 19.6004C0.0217449 19.0377 -0.070278 18.3919 0.0537919 17.7698L2.95334 2.305C3.02435 1.92633 3.17205 1.56618 3.38735 1.24668C3.60265 0.927179 3.88102 0.655082 4.20533 0.447107C4.52965 0.239132 4.89307 0.0996713 5.27326 0.0372959C5.65345 -0.0250795 6.04238 -0.00905241 6.41615 0.0843922L16.0954 2.50421H24.2245L33.9038 0.0843922C34.2775 -0.00905768 34.6665 -0.0250955 35.0466 0.0372646C35.4268 0.0996246 35.7902 0.239065 36.1145 0.447017C36.4388 0.65497 36.7171 0.927041 36.9324 1.24651C37.1477 1.56598 37.2954 1.92611 37.3665 2.30475L40.2662 17.7698C40.3902 18.3919 40.2982 19.0377 40.0053 19.6004C39.7124 20.1631 39.2362 20.6089 38.6555 20.8642ZM32.8757 16.9931L23.7118 5.32993H16.6082L7.44423 16.9931V27.9357C7.44552 29.0594 7.89249 30.1368 8.6871 30.9314C9.48171 31.726 10.5591 32.173 11.6828 32.1743H18.7471V29.9338L16.3351 27.5219C16.0702 27.2569 15.9213 26.8975 15.9214 26.5228C15.9214 26.1481 16.0703 25.7887 16.3352 25.5237C16.6002 25.2588 16.9596 25.1099 17.3343 25.11C17.709 25.11 18.0684 25.2588 18.3334 25.5238L20.16 27.3505L21.9866 25.5238C22.2515 25.2588 22.6109 25.11 22.9856 25.1099C23.3604 25.1099 23.7197 25.2588 23.9847 25.5237C24.2497 25.7887 24.3986 26.1481 24.3986 26.5228C24.3986 26.8975 24.2498 27.2569 23.9848 27.5219L21.5728 29.9338V32.1743H28.6371C29.7609 32.173 30.8382 31.726 31.6329 30.9314C32.4275 30.1368 32.8744 29.0594 32.8757 27.9357V16.9931Z" fill="black"/>
<path d="M15.9214 20.165C15.9214 20.5841 15.7971 20.9939 15.5642 21.3424C15.3314 21.6909 15.0004 21.9625 14.6131 22.1229C14.2259 22.2833 13.7998 22.3253 13.3887 22.2435C12.9775 22.1618 12.5999 21.9599 12.3035 21.6635C12.0072 21.3671 11.8053 20.9895 11.7235 20.5784C11.6418 20.1673 11.6837 19.7412 11.8441 19.3539C12.0045 18.9667 12.2762 18.6357 12.6247 18.4028C12.9732 18.17 13.3829 18.0457 13.8021 18.0457C14.3642 18.0457 14.9032 18.269 15.3007 18.6664C15.6981 19.0638 15.9214 19.6029 15.9214 20.165ZM26.5179 22.2843C26.937 22.2843 27.3468 22.16 27.6953 21.9271C28.0438 21.6942 28.3154 21.3632 28.4758 20.976C28.6362 20.5887 28.6782 20.1626 28.5964 19.7515C28.5146 19.3404 28.3128 18.9628 28.0164 18.6664C27.72 18.37 27.3424 18.1682 26.9313 18.0864C26.5202 18.0046 26.0941 18.0466 25.7068 18.207C25.3196 18.3674 24.9886 18.639 24.7557 18.9876C24.5229 19.3361 24.3986 19.7458 24.3986 20.165C24.3986 20.727 24.6218 21.2661 25.0193 21.6635C25.4167 22.061 25.9558 22.2843 26.5179 22.2843ZM38.6555 20.8642C38.2828 21.0348 37.8779 21.1237 37.468 21.1249C36.8219 21.1241 36.1967 20.8963 35.7014 20.4814V27.9357C35.6993 29.8086 34.9544 31.6042 33.63 32.9286C32.3057 34.2529 30.5101 34.9979 28.6371 35H11.6828C9.8099 34.9979 8.0143 34.2529 6.68995 32.9286C5.36559 31.6042 4.62064 29.8086 4.61851 27.9357V20.4814C4.1233 20.8963 3.49802 21.1241 2.85192 21.1249C2.44202 21.1238 2.03713 21.0348 1.66447 20.8641C1.08373 20.6089 0.607527 20.1631 0.314636 19.6004C0.0217449 19.0377 -0.070278 18.3919 0.0537919 17.7698L2.95334 2.305C3.02435 1.92633 3.17205 1.56618 3.38735 1.24668C3.60265 0.927179 3.88102 0.655082 4.20533 0.447107C4.52965 0.239132 4.89307 0.0996713 5.27326 0.0372959C5.65345 -0.0250795 6.04238 -0.00905241 6.41615 0.0843922L16.0954 2.50421H24.2245L33.9038 0.0843922C34.2775 -0.00905768 34.6665 -0.0250955 35.0466 0.0372646C35.4268 0.0996246 35.7902 0.239065 36.1145 0.447017C36.4388 0.65497 36.7171 0.927041 36.9324 1.24651C37.1477 1.56598 37.2954 1.92611 37.3665 2.30475L40.2662 17.7698C40.3902 18.3919 40.2982 19.0377 40.0053 19.6004C39.7124 20.1631 39.2362 20.6089 38.6555 20.8642ZM32.8757 16.9931L23.7118 5.32993H16.6082L7.44423 16.9931V27.9357C7.44552 29.0594 7.89249 30.1368 8.6871 30.9314C9.48171 31.726 10.5591 32.173 11.6828 32.1743H18.7471V29.9338L16.3351 27.5219C16.0702 27.2569 15.9213 26.8975 15.9214 26.5228C15.9214 26.1481 16.0703 25.7887 16.3352 25.5237C16.6002 25.2588 16.9596 25.1099 17.3343 25.11C17.709 25.11 18.0684 25.2588 18.3334 25.5238L20.16 27.3505L21.9866 25.5238C22.2515 25.2588 22.6109 25.11 22.9856 25.1099C23.3604 25.1099 23.7197 25.2588 23.9847 25.5237C24.2497 25.7887 24.3986 26.1481 24.3986 26.5228C24.3986 26.8975 24.2498 27.2569 23.9848 27.5219L21.5728 29.9338V32.1743H28.6371C29.7609 32.173 30.8382 31.726 31.6329 30.9314C32.4275 30.1368 32.8744 29.0594 32.8757 27.9357V16.9931Z" stroke="black"/>
</svg>
