<svg width="89" height="28" viewBox="0 0 89 28" fill="none" xmlns="http://www.w3.org/2000/svg">
<path d="M13.635 26.996C10.395 26.996 7.965 26.213 6.588 24.782C4.995 23.837 4.104 22.406 4.104 20.543C4.104 18.788 4.86 17.357 6.21 16.331C4.995 16.034 4.023 15.494 3.321 14.738C2.052 14.036 1.242 12.929 0.945 11.417C0.567 9.527 0.702 5.882 1.269 3.155C1.431 2.426 1.89 2.102 2.619 2.102H11.61C12.474 2.102 13.176 2.48 13.5 3.128C13.932 3.263 14.31 3.479 14.553 3.803V2.156C14.553 1.373 14.985 0.940999 15.768 0.940999H18.252C19.116 0.940999 19.791 1.319 20.142 1.967C21.033 2.21 21.6 2.966 21.6 3.992V12.794C21.6 13.658 21.627 14.414 21.465 15.143C21.249 16.169 20.655 16.844 19.737 17.168C21.141 18.221 21.951 19.706 21.951 21.488C21.951 24.971 18.846 26.996 13.635 26.996ZM15.768 9.797V15.251C17.847 15.467 18.819 15.062 19.062 13.928C19.224 13.199 19.17 12.362 19.17 11.147V3.047C19.17 2.453 18.873 2.156 18.252 2.156H15.768V7.043H12.555V4.235C12.555 3.614 12.231 3.317 11.61 3.317H2.484C1.917 5.963 1.782 9.446 2.133 11.174C2.538 13.172 4.023 14.171 6.48 14.387C8.694 14.549 11.178 14.009 12.555 12.713V9.797H15.768ZM6.831 11.633C5.859 11.471 5.319 10.985 5.157 9.716C5.076 8.879 5.13 6.989 5.292 5.99H9.288V11.201C8.721 11.606 7.749 11.795 6.831 11.633ZM7.587 10.472C7.749 10.472 7.911 10.445 8.073 10.418V8.15H7.587C7.533 8.96 7.533 9.932 7.587 10.472ZM12.42 24.836C17.28 24.836 19.521 23.081 19.521 20.543C19.521 17.978 17.253 15.791 12.42 15.791C7.587 15.791 5.319 17.978 5.319 20.543C5.319 23.081 7.56 24.836 12.42 24.836ZM12.42 21.92C9.747 21.92 8.802 21.299 8.802 20.327C8.802 19.355 9.936 18.545 12.42 18.545C14.904 18.545 16.038 19.355 16.038 20.327C16.038 21.299 15.093 21.92 12.42 21.92ZM36.0471 26.996C32.8071 26.996 30.3771 26.213 29.0001 24.782C27.4071 23.837 26.5161 22.406 26.5161 20.543C26.5161 18.788 27.2721 17.357 28.6221 16.331C27.4071 16.034 26.4351 15.494 25.7331 14.738C24.4641 14.036 23.6541 12.929 23.3571 11.417C22.9791 9.527 23.1141 5.882 23.6811 3.155C23.8431 2.426 24.3021 2.102 25.0311 2.102H34.0221C34.8861 2.102 35.5881 2.48 35.9121 3.128C36.3441 3.263 36.7221 3.479 36.9651 3.803V2.156C36.9651 1.373 37.3971 0.940999 38.1801 0.940999H40.6641C41.5281 0.940999 42.2031 1.319 42.5541 1.967C43.4451 2.21 44.0121 2.966 44.0121 3.992V12.794C44.0121 13.658 44.0391 14.414 43.8771 15.143C43.6611 16.169 43.0671 16.844 42.1491 17.168C43.5531 18.221 44.3631 19.706 44.3631 21.488C44.3631 24.971 41.2581 26.996 36.0471 26.996ZM38.1801 9.797V15.251C40.2591 15.467 41.2311 15.062 41.4741 13.928C41.6361 13.199 41.5821 12.362 41.5821 11.147V3.047C41.5821 2.453 41.2851 2.156 40.6641 2.156H38.1801V7.043H34.9671V4.235C34.9671 3.614 34.6431 3.317 34.0221 3.317H24.8961C24.3291 5.963 24.1941 9.446 24.5451 11.174C24.9501 13.172 26.4351 14.171 28.8921 14.387C31.1061 14.549 33.5901 14.009 34.9671 12.713V9.797H38.1801ZM29.2431 11.633C28.2711 11.471 27.7311 10.985 27.5691 9.716C27.4881 8.879 27.5421 6.989 27.7041 5.99H31.7001V11.201C31.1331 11.606 30.1611 11.795 29.2431 11.633ZM29.9991 10.472C30.1611 10.472 30.3231 10.445 30.4851 10.418V8.15H29.9991C29.9451 8.96 29.9451 9.932 29.9991 10.472ZM34.8321 24.836C39.6921 24.836 41.9331 23.081 41.9331 20.543C41.9331 17.978 39.6651 15.791 34.8321 15.791C29.9991 15.791 27.7311 17.978 27.7311 20.543C27.7311 23.081 29.9721 24.836 34.8321 24.836ZM34.8321 21.92C32.1591 21.92 31.2141 21.299 31.2141 20.327C31.2141 19.355 32.3481 18.545 34.8321 18.545C37.3161 18.545 38.4501 19.355 38.4501 20.327C38.4501 21.299 37.5051 21.92 34.8321 21.92ZM55.3542 26.51C53.6802 26.267 52.4652 25.727 51.7092 24.836C50.9262 24.431 50.3862 23.891 50.0082 23.189C49.3872 22.109 49.3062 19.949 49.7112 18.086C49.7922 17.816 49.8732 17.627 50.0082 17.465C49.7112 17.06 49.5222 16.547 49.5222 15.953V14.765C49.0092 14.495 48.5502 14.144 48.1452 13.739C46.3632 12.74 45.3642 10.85 45.3642 8.285C45.3642 4.397 47.7942 1.697 51.3312 1.697C53.0052 1.697 54.4362 2.318 55.4892 3.371V2.426C55.4892 1.643 55.9212 1.211 56.7042 1.211H58.8912C59.5122 1.211 60.0252 1.4 60.4032 1.751C60.5112 1.211 60.9162 0.940999 61.5642 0.940999H63.8862C64.7502 0.940999 65.4252 1.319 65.7762 1.967C66.6672 2.21 67.2342 2.966 67.2342 3.992V11.309C67.2342 12.146 67.2612 12.929 67.0992 13.631C66.9642 14.279 66.7212 14.765 66.3162 15.116C66.5862 15.467 66.7212 15.926 66.7212 16.439V20.57C66.7212 21.029 66.6132 21.434 66.4242 21.758C66.9642 22.109 67.2882 22.676 67.2882 23.405V25.106C67.2882 25.862 66.9102 26.294 66.1542 26.402C62.4012 26.861 58.1352 26.915 55.3542 26.51ZM61.5642 9.608V13.766C63.5352 13.955 64.4802 13.577 64.6962 12.443C64.8582 11.714 64.8042 10.877 64.8042 9.662V3.047C64.8042 2.453 64.5072 2.156 63.8862 2.156H61.5642V6.233H59.8092V3.317C59.8092 2.723 59.5122 2.426 58.8912 2.426H56.7042V13.496C57.4602 13.604 58.2432 13.685 58.8912 13.469C59.5122 13.28 59.8092 12.848 59.8092 11.849V9.608H61.5642ZM51.3312 13.28C54.3822 13.28 56.0832 11.417 56.0832 8.285C56.0832 5.18 54.2742 2.912 51.3312 2.912C48.3612 2.912 46.5792 5.18 46.5792 8.285C46.5792 11.417 48.2802 13.28 51.3312 13.28ZM51.3312 10.553C50.3862 10.553 49.6842 9.851 49.6842 8.069C49.6842 6.287 50.3862 5.504 51.3312 5.504C52.2492 5.504 52.9782 6.287 52.9782 8.069C52.9782 9.851 52.2492 10.553 51.3312 10.553ZM54.3012 24.35C57.0552 24.755 61.2402 24.701 64.8582 24.242V22.46C64.8582 21.866 64.3992 21.623 63.7512 21.677C60.7002 21.947 56.6502 21.974 54.9762 21.677C54.0852 21.515 53.9232 21.191 53.9232 20.651H63.2112C63.9402 20.651 64.2912 20.3 64.2912 19.625V15.494C64.2912 14.9 63.9942 14.603 63.3732 14.603H50.7372V15.953C50.7372 16.709 51.2232 17.168 52.1142 17.168H61.1052V18.275H50.9262C50.5752 19.76 50.6022 21.326 50.9262 22.271C51.3582 23.432 52.4112 24.08 54.3012 24.35ZM79.4403 26.969C77.0373 26.807 75.2283 26.132 74.0943 24.917C72.8793 24.242 72.0693 23.216 71.7183 21.893C71.2593 20.354 71.3403 17.816 71.9073 15.44L71.9343 15.413C71.3943 15.116 70.9083 14.765 70.5303 14.36C69.2073 13.631 68.3703 12.443 68.1003 10.877C67.7763 9.176 67.8303 5.774 68.1813 2.993C68.2893 2.264 68.7213 1.886 69.4773 1.886H71.7183C72.5553 1.886 73.1763 2.264 73.5003 2.885C74.2833 3.074 74.7963 3.668 74.9313 4.478H75.4713V3.101C75.4713 2.318 75.9033 1.886 76.6863 1.886H78.9543C79.8183 1.886 80.4933 2.264 80.8443 2.912C81.2223 3.02 81.5463 3.209 81.7893 3.479V2.156C81.7893 1.373 82.2213 0.940999 83.0043 0.940999H85.4883C86.3523 0.940999 87.0273 1.319 87.3783 1.967C88.2693 2.21 88.8363 2.966 88.8363 3.992V11.984C88.8363 12.848 88.8633 13.604 88.7013 14.333C88.5663 14.954 88.2963 15.467 87.8913 15.818C88.3233 16.196 88.5663 16.736 88.5663 17.411V23.405C88.5663 24.026 88.4043 24.485 87.9183 24.89C86.0553 26.375 82.8423 27.158 79.4403 26.969ZM83.0043 9.338V14.441C85.0833 14.657 86.0553 14.252 86.2983 13.118C86.4603 12.389 86.4063 11.552 86.4063 10.337V3.047C86.4063 2.453 86.1093 2.156 85.4883 2.156H83.0043V6.584H79.8723V3.992C79.8723 3.398 79.5753 3.101 78.9543 3.101H76.6863V5.693H72.4203C72.4473 5.126 72.4743 4.586 72.5283 4.046C72.5553 3.452 72.3123 3.101 71.7183 3.101H69.3963C69.0183 5.963 69.0183 9.176 69.2883 10.661C69.6933 12.875 71.4213 13.847 73.8243 14.009C76.0923 14.171 78.4143 13.685 79.8723 12.497V9.338H83.0043ZM73.9863 11.282C73.0953 11.147 72.5823 10.607 72.4473 9.608C72.4203 9.257 72.3933 8.798 72.3933 8.231H76.6863V10.958C75.9303 11.336 74.9853 11.444 73.9863 11.282ZM78.3063 24.809C81.5193 24.998 84.5433 24.242 86.1363 22.838V16.466C86.1363 15.899 85.8393 15.629 85.2723 15.629H73.1223C72.6903 17.357 72.3933 19.922 72.8793 21.569C73.4193 23.54 75.2823 24.62 78.3063 24.809ZM77.6853 21.65C76.1733 21.272 75.6873 20.408 75.9303 18.464H82.8423V21.164C81.6273 21.812 79.3053 22.028 77.6853 21.65Z" fill="black"/>
</svg>
