<svg width="35" height="35" viewBox="0 0 35 35" fill="none" xmlns="http://www.w3.org/2000/svg">
<path d="M29.75 3.5H26.25V1.75C26.25 1.28587 26.0656 0.840752 25.7374 0.512563C25.4093 0.184374 24.9641 0 24.5 0C24.0359 0 23.5908 0.184374 23.2626 0.512563C22.9344 0.840752 22.75 1.28587 22.75 1.75V3.5H12.25V1.75C12.25 1.28587 12.0656 0.840752 11.7374 0.512563C11.4092 0.184374 10.9641 0 10.5 0C10.0359 0 9.59075 0.184374 9.26256 0.512563C8.93437 0.840752 8.75 1.28587 8.75 1.75V3.5H5.25C3.85761 3.5 2.52226 4.05312 1.53769 5.03769C0.553124 6.02226 0 7.35761 0 8.75V29.75C0 31.1424 0.553124 32.4777 1.53769 33.4623C2.52226 34.4469 3.85761 35 5.25 35H29.75C31.1424 35 32.4777 34.4469 33.4623 33.4623C34.4469 32.4777 35 31.1424 35 29.75V8.75C35 7.35761 34.4469 6.02226 33.4623 5.03769C32.4777 4.05312 31.1424 3.5 29.75 3.5ZM31.5 29.75C31.5 30.2141 31.3156 30.6593 30.9874 30.9874C30.6593 31.3156 30.2141 31.5 29.75 31.5H5.25C4.78587 31.5 4.34075 31.3156 4.01256 30.9874C3.68438 30.6593 3.5 30.2141 3.5 29.75V17.5H31.5V29.75ZM31.5 14H3.5V8.75C3.5 8.28587 3.68438 7.84075 4.01256 7.51256C4.34075 7.18437 4.78587 7 5.25 7H8.75V8.75C8.75 9.21413 8.93437 9.65925 9.26256 9.98744C9.59075 10.3156 10.0359 10.5 10.5 10.5C10.9641 10.5 11.4092 10.3156 11.7374 9.98744C12.0656 9.65925 12.25 9.21413 12.25 8.75V7H22.75V8.75C22.75 9.21413 22.9344 9.65925 23.2626 9.98744C23.5908 10.3156 24.0359 10.5 24.5 10.5C24.9641 10.5 25.4093 10.3156 25.7374 9.98744C26.0656 9.65925 26.25 9.21413 26.25 8.75V7H29.75C30.2141 7 30.6593 7.18437 30.9874 7.51256C31.3156 7.84075 31.5 8.28587 31.5 8.75V14Z" fill="black"/>
<path d="M29.75 3.5H26.25V1.75C26.25 1.28587 26.0656 0.840752 25.7374 0.512563C25.4093 0.184374 24.9641 0 24.5 0C24.0359 0 23.5908 0.184374 23.2626 0.512563C22.9344 0.840752 22.75 1.28587 22.75 1.75V3.5H12.25V1.75C12.25 1.28587 12.0656 0.840752 11.7374 0.512563C11.4092 0.184374 10.9641 0 10.5 0C10.0359 0 9.59075 0.184374 9.26256 0.512563C8.93437 0.840752 8.75 1.28587 8.75 1.75V3.5H5.25C3.85761 3.5 2.52226 4.05312 1.53769 5.03769C0.553124 6.02226 0 7.35761 0 8.75V29.75C0 31.1424 0.553124 32.4777 1.53769 33.4623C2.52226 34.4469 3.85761 35 5.25 35H29.75C31.1424 35 32.4777 34.4469 33.4623 33.4623C34.4469 32.4777 35 31.1424 35 29.75V8.75C35 7.35761 34.4469 6.02226 33.4623 5.03769C32.4777 4.05312 31.1424 3.5 29.75 3.5ZM31.5 29.75C31.5 30.2141 31.3156 30.6593 30.9874 30.9874C30.6593 31.3156 30.2141 31.5 29.75 31.5H5.25C4.78587 31.5 4.34075 31.3156 4.01256 30.9874C3.68438 30.6593 3.5 30.2141 3.5 29.75V17.5H31.5V29.75ZM31.5 14H3.5V8.75C3.5 8.28587 3.68438 7.84075 4.01256 7.51256C4.34075 7.18437 4.78587 7 5.25 7H8.75V8.75C8.75 9.21413 8.93437 9.65925 9.26256 9.98744C9.59075 10.3156 10.0359 10.5 10.5 10.5C10.9641 10.5 11.4092 10.3156 11.7374 9.98744C12.0656 9.65925 12.25 9.21413 12.25 8.75V7H22.75V8.75C22.75 9.21413 22.9344 9.65925 23.2626 9.98744C23.5908 10.3156 24.0359 10.5 24.5 10.5C24.9641 10.5 25.4093 10.3156 25.7374 9.98744C26.0656 9.65925 26.25 9.21413 26.25 8.75V7H29.75C30.2141 7 30.6593 7.18437 30.9874 7.51256C31.3156 7.84075 31.5 8.28587 31.5 8.75V14Z" stroke="black"/>
</svg>
