<svg width="90" height="28" viewBox="0 0 90 28" fill="none" xmlns="http://www.w3.org/2000/svg">
<path d="M13.635 26.996C10.395 26.996 7.965 26.213 6.588 24.782C4.995 23.837 4.104 22.406 4.104 20.543C4.104 18.788 4.86 17.357 6.21 16.331C4.995 16.034 4.023 15.494 3.321 14.738C2.052 14.036 1.242 12.929 0.945 11.417C0.567 9.527 0.702 5.882 1.269 3.155C1.431 2.426 1.89 2.102 2.619 2.102H11.61C12.474 2.102 13.176 2.48 13.5 3.128C13.932 3.263 14.31 3.479 14.553 3.803V2.156C14.553 1.373 14.985 0.940999 15.768 0.940999H18.252C19.116 0.940999 19.791 1.319 20.142 1.967C21.033 2.21 21.6 2.966 21.6 3.992V12.794C21.6 13.658 21.627 14.414 21.465 15.143C21.249 16.169 20.655 16.844 19.737 17.168C21.141 18.221 21.951 19.706 21.951 21.488C21.951 24.971 18.846 26.996 13.635 26.996ZM15.768 9.797V15.251C17.847 15.467 18.819 15.062 19.062 13.928C19.224 13.199 19.17 12.362 19.17 11.147V3.047C19.17 2.453 18.873 2.156 18.252 2.156H15.768V7.043H12.555V4.235C12.555 3.614 12.231 3.317 11.61 3.317H2.484C1.917 5.963 1.782 9.446 2.133 11.174C2.538 13.172 4.023 14.171 6.48 14.387C8.694 14.549 11.178 14.009 12.555 12.713V9.797H15.768ZM6.831 11.633C5.859 11.471 5.319 10.985 5.157 9.716C5.076 8.879 5.13 6.989 5.292 5.99H9.288V11.201C8.721 11.606 7.749 11.795 6.831 11.633ZM7.587 10.472C7.749 10.472 7.911 10.445 8.073 10.418V8.15H7.587C7.533 8.96 7.533 9.932 7.587 10.472ZM12.42 24.836C17.28 24.836 19.521 23.081 19.521 20.543C19.521 17.978 17.253 15.791 12.42 15.791C7.587 15.791 5.319 17.978 5.319 20.543C5.319 23.081 7.56 24.836 12.42 24.836ZM12.42 21.92C9.747 21.92 8.802 21.299 8.802 20.327C8.802 19.355 9.936 18.545 12.42 18.545C14.904 18.545 16.038 19.355 16.038 20.327C16.038 21.299 15.093 21.92 12.42 21.92ZM36.0471 26.996C32.8071 26.996 30.3771 26.213 29.0001 24.782C27.4071 23.837 26.5161 22.406 26.5161 20.543C26.5161 18.788 27.2721 17.357 28.6221 16.331C27.4071 16.034 26.4351 15.494 25.7331 14.738C24.4641 14.036 23.6541 12.929 23.3571 11.417C22.9791 9.527 23.1141 5.882 23.6811 3.155C23.8431 2.426 24.3021 2.102 25.0311 2.102H34.0221C34.8861 2.102 35.5881 2.48 35.9121 3.128C36.3441 3.263 36.7221 3.479 36.9651 3.803V2.156C36.9651 1.373 37.3971 0.940999 38.1801 0.940999H40.6641C41.5281 0.940999 42.2031 1.319 42.5541 1.967C43.4451 2.21 44.0121 2.966 44.0121 3.992V12.794C44.0121 13.658 44.0391 14.414 43.8771 15.143C43.6611 16.169 43.0671 16.844 42.1491 17.168C43.5531 18.221 44.3631 19.706 44.3631 21.488C44.3631 24.971 41.2581 26.996 36.0471 26.996ZM38.1801 9.797V15.251C40.2591 15.467 41.2311 15.062 41.4741 13.928C41.6361 13.199 41.5821 12.362 41.5821 11.147V3.047C41.5821 2.453 41.2851 2.156 40.6641 2.156H38.1801V7.043H34.9671V4.235C34.9671 3.614 34.6431 3.317 34.0221 3.317H24.8961C24.3291 5.963 24.1941 9.446 24.5451 11.174C24.9501 13.172 26.4351 14.171 28.8921 14.387C31.1061 14.549 33.5901 14.009 34.9671 12.713V9.797H38.1801ZM29.2431 11.633C28.2711 11.471 27.7311 10.985 27.5691 9.716C27.4881 8.879 27.5421 6.989 27.7041 5.99H31.7001V11.201C31.1331 11.606 30.1611 11.795 29.2431 11.633ZM29.9991 10.472C30.1611 10.472 30.3231 10.445 30.4851 10.418V8.15H29.9991C29.9451 8.96 29.9451 9.932 29.9991 10.472ZM34.8321 24.836C39.6921 24.836 41.9331 23.081 41.9331 20.543C41.9331 17.978 39.6651 15.791 34.8321 15.791C29.9991 15.791 27.7311 17.978 27.7311 20.543C27.7311 23.081 29.9721 24.836 34.8321 24.836ZM34.8321 21.92C32.1591 21.92 31.2141 21.299 31.2141 20.327C31.2141 19.355 32.3481 18.545 34.8321 18.545C37.3161 18.545 38.4501 19.355 38.4501 20.327C38.4501 21.299 37.5051 21.92 34.8321 21.92ZM54.0042 26.537C52.3302 26.294 51.1152 25.754 50.3592 24.863C49.4142 24.35 48.7662 23.621 48.4152 22.676C47.9832 21.488 47.9562 19.679 48.3342 18.005C48.4152 17.735 48.4962 17.546 48.6582 17.384C48.3072 16.979 48.1182 16.439 48.1182 15.818V14.468C48.1182 14.117 48.1992 13.82 48.3882 13.604L48.1452 13.361C46.8222 12.659 46.0932 11.552 45.8232 9.905C45.5262 8.177 45.6882 5.261 46.1472 2.831C46.2822 2.129 46.7412 1.778 47.4972 1.778H55.9482C56.8122 1.778 57.4872 2.156 57.8112 2.804C57.9462 2.831 58.0812 2.885 58.2162 2.939V2.156C58.2162 1.373 58.6482 0.940999 59.4312 0.940999H61.9152C62.7792 0.940999 63.4542 1.319 63.8052 1.967C64.6962 2.21 65.2632 2.966 65.2632 3.992V4.964C65.9652 5.126 66.5052 5.45 66.8832 6.044C67.3962 6.206 67.8012 6.53 68.0982 6.989C68.8002 8.042 68.7192 9.851 67.9902 11.093C67.6932 11.66 67.2072 11.822 66.5592 11.822H65.2632C65.2632 12.308 65.2092 12.794 65.1282 13.226C64.9932 13.847 64.7232 14.36 64.3452 14.711C64.7502 15.089 64.9932 15.629 64.9932 16.304V20.516C64.9932 20.975 64.8852 21.38 64.6962 21.731C65.2362 22.055 65.5602 22.649 65.5602 23.378V25.079C65.5602 25.835 65.1822 26.267 64.4532 26.375C60.9162 26.861 56.7852 26.915 54.0042 26.537ZM59.4312 2.156V13.361C61.5102 13.577 62.4822 13.172 62.7252 12.038C62.8602 11.39 62.8332 10.661 62.8332 9.662H65.6682C66.1812 8.852 66.2892 7.718 66.0192 6.989C65.6952 6.179 64.9662 5.882 62.8332 6.26V3.047C62.8332 2.453 62.5362 2.156 61.9152 2.156H59.4312ZM51.4122 12.983C53.3022 13.172 55.8402 12.983 57.7032 12.578V10.85C57.7032 10.229 57.2442 9.932 56.4612 10.04C55.3272 10.175 53.3022 10.31 51.8172 10.148C50.7372 10.013 50.2242 9.554 50.0892 8.582C50.0082 7.853 50.0352 6.449 50.1162 5.774H56.8122V3.749C56.8122 3.236 56.5152 2.993 55.9482 2.993H47.3622C46.8762 5.423 46.7682 8.177 47.0112 9.716C47.3622 11.795 48.6042 12.713 51.4122 12.983ZM58.2162 9.284V7.934H52.4652C52.4652 8.312 52.4652 8.663 52.4922 8.987C53.5722 9.041 55.0302 8.987 56.2992 8.825C57.0552 8.744 57.7302 8.906 58.2162 9.284ZM52.9512 24.377C55.6242 24.755 59.6472 24.701 63.1302 24.215V22.433C63.1302 21.839 62.6712 21.596 62.0232 21.65C59.1342 21.92 55.3002 21.974 53.5992 21.65C52.7082 21.515 52.5462 21.137 52.5462 20.597H61.4832C62.2122 20.597 62.5632 20.246 62.5632 19.571V15.359C62.5632 14.765 62.2662 14.468 61.6452 14.468H49.3332V15.818C49.3332 16.574 49.8192 17.033 50.7102 17.033H59.3502V18.194H49.5492C49.1712 19.733 49.1982 21.299 49.5492 22.244C49.9812 23.432 51.0342 24.107 52.9512 24.377ZM85.0097 26.834C84.3887 26.753 84.0107 26.429 83.9027 25.889H83.7947C83.0387 25.808 82.6607 25.322 82.6607 24.593V21.785H75.4787C74.6147 21.785 73.9397 21.407 73.5887 20.759C72.6977 20.516 72.1307 19.76 72.1307 18.734V16.655C72.1307 16.304 72.2117 16.034 72.3737 15.845C72.0227 15.629 71.7257 15.386 71.4827 15.089C70.2947 14.468 69.5927 13.496 69.3227 12.119C69.1067 10.931 69.1607 8.987 69.4307 7.34C69.5117 6.962 69.6467 6.692 69.8627 6.53C69.4307 6.152 69.1877 5.585 69.1877 4.91V3.182C69.1877 2.399 69.6197 1.967 70.4027 1.967H78.9617C79.7717 1.967 80.4197 2.345 80.7707 2.993C81.1217 3.074 81.4457 3.263 81.6887 3.533H82.6067V2.156C82.6067 1.373 83.0387 0.940999 83.8217 0.940999H86.3057C87.1697 0.940999 87.8447 1.319 88.1957 1.967C89.0867 2.21 89.6537 2.966 89.6537 3.992V12.929C89.6537 13.793 89.6807 14.549 89.5187 15.278C89.3837 15.872 89.1407 16.358 88.7627 16.709C89.3297 17.06 89.6537 17.708 89.6537 18.491V20.732C89.6807 21.731 89.7077 23.459 89.5187 24.485C89.2217 26.402 87.4667 27.131 85.0097 26.834ZM83.8217 11.876V15.386C85.9007 15.602 86.8727 15.197 87.1157 14.063C87.2777 13.334 87.2237 12.497 87.2237 11.282V3.047C87.2237 2.453 86.9267 2.156 86.3057 2.156H83.8217V4.748H80.5007C80.2037 5.504 80.1767 6.53 80.4197 7.016C80.7167 7.61 81.3647 7.907 83.8217 7.691V8.933H80.5007C80.2037 9.689 80.1767 10.715 80.4197 11.201C80.7167 11.795 81.3647 12.092 83.8217 11.876ZM74.9657 14.684C77.0717 14.819 79.3397 14.738 81.2297 14.441V12.713C81.2297 12.119 80.8517 11.795 80.2037 11.849C78.7727 11.93 77.2607 12.011 75.4517 11.876C74.1287 11.768 73.7237 11.552 73.6157 11.012C73.5617 10.742 73.5617 10.364 73.5887 9.986H79.7987V4.073C79.7987 3.479 79.5017 3.182 78.9617 3.182H70.4027V4.91C70.4027 5.504 70.6997 5.801 71.3207 5.801H76.5587V7.475H70.6457C70.4027 8.852 70.2947 10.715 70.5107 11.903C70.8617 13.685 72.2117 14.522 74.9657 14.684ZM83.8757 19.625V24.674C85.8467 24.917 86.9267 24.485 87.1157 23.351C87.3047 22.217 87.2237 20.003 87.2237 19.22V17.546C87.2237 16.952 86.9267 16.655 86.3057 16.655H73.3457V18.734C73.3457 19.328 73.6427 19.625 74.2637 19.625H83.8757Z" fill="black"/>
</svg>
