<svg width="42" height="39" viewBox="0 0 42 39" fill="none" xmlns="http://www.w3.org/2000/svg">
<path d="M32.1008 23.8601C31.4306 21.4304 29.9817 19.2877 27.9765 17.7607C25.9712 16.2338 23.5204 15.4069 21 15.4069C18.4795 15.4069 16.0287 16.2338 14.0235 17.7607C12.0183 19.2877 10.5694 21.4304 9.89915 23.8601L8.30193 29.6501C8.01515 30.6897 7.97237 31.7815 8.17691 32.8403C8.38145 33.8991 8.82779 34.8964 9.48113 35.7544C10.1345 36.6124 10.9772 37.3079 11.9435 37.7866C12.9098 38.2654 13.9736 38.5145 15.0521 38.5145H26.9479C28.0263 38.5145 29.0902 38.2654 30.0565 37.7866C31.0228 37.3079 31.8655 36.6124 32.5188 35.7544C33.1722 34.8964 33.6185 33.8991 33.823 32.8403C34.0276 31.7815 33.9848 30.6897 33.698 29.6501L32.1008 23.8601ZM30.2905 34.0572C29.9002 34.5738 29.395 34.9925 28.8148 35.28C28.2346 35.5675 27.5954 35.716 26.9479 35.7136H15.0521C14.405 35.7136 13.7667 35.5641 13.1869 35.2769C12.6071 34.9896 12.1014 34.5723 11.7094 34.0575C11.3174 33.5427 11.0496 32.9443 10.9269 32.309C10.8042 31.6737 10.8299 31.0186 11.0019 30.3949L12.5992 24.6049C13.1064 22.7662 14.2029 21.1447 15.7204 19.9891C17.2379 18.8336 19.0926 18.2078 21 18.2078C22.9074 18.2078 24.7621 18.8336 26.2796 19.9891C27.7971 21.1447 28.8936 22.7662 29.4008 24.6049L30.998 30.3949C31.1726 31.0184 31.1995 31.674 31.0767 32.3097C30.9539 32.9455 30.6847 33.5439 30.2905 34.0575V34.0572Z" fill="#9BB4FF"/>
<path d="M11.3806 17.3596C11.6243 15.8366 11.3011 14.2063 10.4703 12.7676C9.63945 11.329 8.38884 10.2339 6.94839 9.68347C5.40578 9.09432 3.83237 9.18815 2.51646 9.94755C-0.0995078 11.4579 -0.787921 15.1804 0.982171 18.2457C1.81273 19.6843 3.06343 20.7797 4.50389 21.3299C5.14198 21.5785 5.82023 21.7082 6.50505 21.7124C7.35823 21.7155 8.19698 21.4924 8.93581 21.0657C10.2509 20.3062 11.1192 18.99 11.3806 17.3596ZM8.61467 16.9169C8.4895 17.6985 8.10613 18.3104 7.53518 18.64C6.96423 18.9697 6.24264 18.9956 5.50303 18.7133C4.66161 18.392 3.91744 17.7285 3.4075 16.8452C2.42718 15.1472 2.66018 13.099 3.91692 12.3732C4.23284 12.1939 4.59064 12.1016 4.95387 12.1056C5.2946 12.1091 5.63181 12.1749 5.9489 12.2996C6.79031 12.6211 7.53448 13.2845 8.04442 14.1677C8.55436 15.051 8.75681 16.0276 8.61467 16.9169Z" fill="#9BB4FF"/>
<path d="M11.6839 11.5571C12.6784 12.3521 13.8141 12.7661 14.9626 12.766C15.3066 12.7659 15.6496 12.7289 15.9857 12.6557C18.9374 12.014 20.7271 8.6781 19.9753 5.21941C19.6225 3.5961 18.7649 2.17192 17.5605 1.20902C16.2708 0.177934 14.7431 -0.212356 13.2588 0.110449C10.3071 0.752034 8.51741 4.08793 9.2692 7.54662C9.62203 9.17001 10.4796 10.5942 11.6839 11.5571ZM13.8536 2.84747C13.9897 2.81812 14.1286 2.80345 14.2678 2.80371C14.7884 2.80371 15.3239 3.00738 15.8115 3.39724C16.515 3.95961 17.0217 4.81818 17.2382 5.81487C17.6549 7.73131 16.8088 9.61081 15.3908 9.91908C14.7465 10.0591 14.0512 9.86412 13.433 9.36984C12.7296 8.80738 12.2229 7.94881 12.0063 6.95221C11.5896 5.03525 12.4356 3.15575 13.8536 2.84747Z" fill="#9BB4FF"/>
<path d="M39.4835 9.94755C38.1681 9.18815 36.5939 9.09432 35.0516 9.68347C33.6111 10.2338 32.3605 11.329 31.5299 12.7676C30.6993 14.2063 30.3761 15.837 30.6196 17.3596C30.8806 18.99 31.7487 20.3062 33.0644 21.0657C33.8032 21.4924 34.6419 21.7156 35.4951 21.7125C36.1799 21.7082 36.8582 21.5785 37.4963 21.3299C38.9367 20.7797 40.1874 19.6843 41.018 18.2457C42.7879 15.1804 42.0995 11.4579 39.4835 9.94755ZM38.5925 16.8452C38.0825 17.7285 37.3384 18.392 36.497 18.7133C35.7577 18.9958 35.0359 18.9698 34.465 18.64C33.894 18.3102 33.5109 17.6985 33.3855 16.9169C33.2432 16.0276 33.4455 15.0513 33.9556 14.1685C34.4656 13.2857 35.2097 12.6219 36.0511 12.3004C36.3682 12.1755 36.7054 12.1096 37.0461 12.106C37.4094 12.102 37.7671 12.1944 38.0831 12.3737C39.3398 13.0988 39.5731 15.1467 38.5925 16.8452Z" fill="#9BB4FF"/>
<path d="M26.0142 12.6556C26.3503 12.7289 26.6933 12.7659 27.0373 12.766C28.1857 12.766 29.3218 12.3521 30.3159 11.5571C31.5202 10.5943 32.3778 9.16999 32.7307 7.54668C33.4825 4.08799 31.6928 0.752096 28.7411 0.110511C27.2569 -0.21212 25.7291 0.177907 24.4393 1.20908C23.235 2.1719 22.3773 3.59616 22.0246 5.21938C21.2727 8.67808 23.0624 12.014 26.0142 12.6556ZM24.7616 5.8144C24.9782 4.81771 25.4849 3.9588 26.1883 3.39677C26.6761 3.00692 27.2115 2.80324 27.7321 2.80324C27.8713 2.80299 28.0102 2.81766 28.1463 2.84701C29.5642 3.15528 30.4103 5.03522 29.9937 6.95122C29.777 7.94791 29.2703 8.80683 28.567 9.36894C27.949 9.86313 27.2541 10.0581 26.6093 9.91818C25.191 9.61034 24.345 7.73058 24.7616 5.8144Z" fill="#9BB4FF"/>
</svg>
