<svg width="22" height="25" viewBox="0 0 22 25" fill="none" xmlns="http://www.w3.org/2000/svg">
<path d="M12.2217 5.99084C12.6415 5.46875 12.5573 4.70633 12.0335 4.28789C11.5099 3.86947 10.7453 3.95348 10.3257 4.47557L12.2217 5.99084ZM1.71884 17.12L2.63906 17.911C2.64855 17.9 2.65784 17.8889 2.66693 17.8776L1.71884 17.12ZM1.44182 17.7952L0.229169 17.7162L0.2281 17.7392L1.44182 17.7952ZM1.21502 22.6782L0.00129717 22.6221C-0.00148926 22.6822 0.000211756 22.7425 0.00641643 22.8024L1.21502 22.6782ZM2.48997 23.7879L2.52969 24.9987C2.61073 24.9959 2.69127 24.9853 2.77017 24.9665L2.48997 23.7879ZM7.35003 22.6394L7.63029 23.8182L7.64908 23.8135L7.35003 22.6394ZM7.97373 22.2453L8.91108 23.0163L8.92161 23.0032L7.97373 22.2453ZM18.7065 10.837C19.1263 10.3149 19.0422 9.55249 18.5188 9.13391C17.9953 8.71533 17.2305 8.79916 16.8108 9.32119L18.7065 10.837ZM10.3307 4.47525C9.91095 4.99719 9.99487 5.75965 10.5185 6.17826C11.0419 6.59686 11.8065 6.51309 12.2264 5.99116L10.3307 4.47525ZM13.8512 2.03496L14.799 2.79293C14.8149 2.77308 14.8303 2.75272 14.845 2.7319L13.8512 2.03496ZM16.4902 1.51808L17.2675 0.586971C17.2287 0.55486 17.1881 0.525187 17.1458 0.498099L16.4902 1.51808ZM20.1142 4.52571L20.9741 3.66988C20.9477 3.64353 20.9201 3.61843 20.8914 3.5946L20.1142 4.52571ZM20.0996 7.17152L19.2491 6.30632C19.2147 6.33998 19.1823 6.37565 19.152 6.41314L20.0996 7.17152ZM16.8108 9.32119C16.3907 9.84292 16.4748 10.6048 16.9981 11.0237C17.5213 11.4425 18.2865 11.3587 18.7065 10.837L16.8108 9.32119ZM12.4801 5.05368C12.3807 4.392 11.7621 3.93598 11.0986 4.03514C10.4349 4.13428 9.97754 4.75106 10.077 5.41274L12.4801 5.05368ZM17.9223 11.2794C18.5871 11.1894 19.0529 10.5788 18.9626 9.91593C18.8723 9.25293 18.26 8.7885 17.595 8.87859L17.9223 11.2794ZM10.3257 4.47557L0.770757 16.3623L2.66693 17.8776L12.2217 5.99084L10.3257 4.47557ZM0.798622 16.3289C0.462695 16.7173 0.262655 17.2043 0.229169 17.7162L2.65426 17.874C2.65337 17.8876 2.64804 17.9007 2.63906 17.911L0.798622 16.3289ZM0.2281 17.7392L0.00129717 22.6221L2.42873 22.7342L2.65554 17.8513L0.2281 17.7392ZM0.00641643 22.8024C0.138723 24.0815 1.24074 25.0407 2.52969 24.9987L2.45025 22.5771C2.44506 22.5772 2.44252 22.5764 2.44087 22.5758C2.43855 22.575 2.43549 22.5733 2.43236 22.5706C2.42922 22.5679 2.42719 22.5651 2.42604 22.563C2.42522 22.5614 2.42415 22.559 2.42361 22.5538L0.00641643 22.8024ZM2.77017 24.9665L7.63029 23.8182L7.06976 21.4606L2.20977 22.609L2.77017 24.9665ZM7.64908 23.8135C8.144 23.6882 8.5861 23.4091 8.91108 23.0163L7.03639 21.4743C7.04028 21.4698 7.0453 21.4666 7.05097 21.4651L7.64908 23.8135ZM8.92161 23.0032L18.7065 10.837L16.8108 9.32119L7.02586 21.4874L8.92161 23.0032ZM12.2264 5.99116L14.799 2.79293L12.9033 1.27701L10.3307 4.47525L12.2264 5.99116ZM14.845 2.7319C15.0696 2.4135 15.5059 2.32804 15.8346 2.53807L17.1458 0.498099C15.7213 -0.412041 13.8306 -0.0417239 12.8573 1.33804L14.845 2.7319ZM15.7129 2.44918L19.3369 5.45682L20.8914 3.5946L17.2675 0.586971L15.7129 2.44918ZM19.2543 5.38156C19.3772 5.50447 19.4459 5.67132 19.4449 5.845L21.875 5.85831C21.8795 5.03822 21.5552 4.25032 20.9741 3.66988L19.2543 5.38156ZM19.4449 5.845C19.4441 6.01867 19.3735 6.18475 19.2491 6.30632L20.9501 8.03674C21.5375 7.46269 21.8704 6.6784 21.875 5.85831L19.4449 5.845ZM19.152 6.41314L16.8108 9.32119L18.7065 10.837L21.0471 7.92992L19.152 6.41314ZM10.077 5.41274C10.6429 9.17841 14.1381 11.7921 17.9223 11.2794L17.595 8.87859C15.1279 9.21283 12.8492 7.50877 12.4801 5.05368L10.077 5.41274Z" fill="#9B9B9B"/>
</svg>
