<svg width="20" height="20" viewBox="0 0 20 20" fill="none" xmlns="http://www.w3.org/2000/svg">
<g clip-path="url(#clip0_125_585)">
<path fill-rule="evenodd" clip-rule="evenodd" d="M13.6717 10.7226H10.5793V13.815C10.5793 14.1552 10.3028 14.4335 9.96077 14.4335C9.61875 14.4335 9.34229 14.1552 9.34229 13.815V10.7226H6.24984C5.90781 10.7226 5.63135 10.4443 5.63135 10.1041C5.63135 9.76392 5.90781 9.4856 6.24984 9.4856H9.34229V6.39315C9.34229 6.05298 9.61875 5.77466 9.96077 5.77466C10.3028 5.77466 10.5793 6.05298 10.5793 6.39315V9.4856H13.6717C14.0137 9.4856 14.2902 9.76392 14.2902 10.1041C14.2902 10.4443 14.0137 10.7226 13.6717 10.7226ZM9.96077 0.208252C4.49518 0.208252 0.0649414 4.63664 0.0649414 10.1041C0.0649414 15.5715 4.49518 19.9999 9.96077 19.9999C15.4264 19.9999 19.8566 15.5715 19.8566 10.1041C19.8566 4.63664 15.4264 0.208252 9.96077 0.208252Z" fill="#9BB4FF"/>
</g>
<defs>
<clipPath id="clip0_125_585">
<rect width="19.7917" height="19.7917" fill="white" transform="translate(0.0649414 0.208252)"/>
</clipPath>
</defs>
</svg>
